<svg xmlns="http://www.w3.org/2000/svg" xmlns:xlink="http://www.w3.org/1999/xlink" viewBox="0 0 78.3 95.1"><defs><clipPath id="a"><rect x="216.9" y="-711.4" width="1920" height="1085" style="fill:none"/></clipPath><clipPath id="b"><rect x="-125.7" y="-706" width="2527.4" height="1084.6" rx="3.7" ry="3.7" style="fill:none"/></clipPath></defs><title>salamanca-isotipo</title><g style="clip-path:url(#a)"><g style="clip-path:url(#b)"><image width="4952" height="3162" transform="translate(-132.7 -784.7) scale(0.52)" xlink:href="C:\Users\ASUS\Downloads\SALAMANCA 01.jpg"/><rect x="-138.1" y="-487.5" width="2552.1" height="871.34" rx="3.7" ry="3.7" style="fill:none"/></g></g><path d="M31.9,95.1a28.5,28.5,0,0,0,6.6-7.9c7-12.5,6.4-24.8-.9-36.9-2.6-4.3-5-8.6-6-13.5-2.5-12,.1-22.6,8.5-31.7A27.3,27.3,0,0,1,46.7,0l.2.2c-.7.7-1.5,1.3-2.2,2.1a33.3,33.3,0,0,0-9,26.1A38.1,38.1,0,0,0,42,46.2c7.7,12.3,8.5,24.9,1.4,37.8A29.7,29.7,0,0,1,33,94.7,1.5,1.5,0,0,1,31.9,95.1Z" style="fill:#ebebeb"/><path d="M67.6,47.4a28.4,28.4,0,0,1-14.8,25,39.8,39.8,0,0,1-1,4.1A31.7,31.7,0,0,0,42,15.9a27.5,27.5,0,0,0-.8,3.2A28.4,28.4,0,0,1,67.6,47.4Z" style="fill:#ebebeb"/><path d="M10.8,47.4A28.4,28.4,0,0,1,26.7,21.9a36.7,36.7,0,0,1,.8-4,31.7,31.7,0,0,0,9.6,61.1,31.5,31.5,0,0,0,1-3.2A28.4,28.4,0,0,1,10.8,47.4Z" style="fill:#ebebeb"/><path d="M35.7,82.4a35.2,35.2,0,0,1-6.8-68.6,37,37,0,0,1,2.3-4.7,39.2,39.2,0,0,0,2.3,77.1l1.2-1.8Z" style="fill:#ebebeb"/><path d="M78.3,47.4A39.2,39.2,0,0,0,45.4,8.8a28.1,28.1,0,0,0-2.2,3.8,35.2,35.2,0,0,1,6.9,68.3,48.1,48.1,0,0,1-2.3,4.8A39.2,39.2,0,0,0,78.3,47.4Z" style="fill:#ebebeb"/></svg>